# xmcd
#
# Track frame offsets: 
#        182
#        20552
#        45370
#        72427
#        92697
#        109712
#        139567
#        156730
#        174210
#        196027
#        216937
#        235112
#
# Disc length: 3452 seconds
#
# Revision: 1
# Processed by: cddbd v1.5.2PL0 Copyright (c) Steve Scherf et al.
# Submitted via: ExactAudioCopyFreeDBPlugin 1.0
#
DISCID=9c0d7a0c
DTITLE=Various Artist - The Journey Continues . . . Celebrate Black M
DTITLE=usic
DYEAR=1995
DGENRE=Rhythm and Blues
TTITLE0=Montel Jordan - Somethin' 4 Da Honeyz
TTITLE1=Incognito - Spellbound and Speechless
TTITLE2=Jason Weaver - Luv Ambition
TTITLE3=Buju Banton - Champion (Remix)
TTITLE4=Vertical Hold - Love Today
TTITLE5=The Christianaires - We Need Jesus
TTITLE6=Roy Hargrove - Ray Allan
TTITLE7=Dove Shack - Summertime in the LBC
TTITLE8=Joya - Gettin' Off on You
TTITLE9=Rosie Gaines - I Want U (Inner City Blue)
TTITLE10=Lo-Key? - Good Ole' Fashion Love
TTITLE11=Angelic Voice of Faith - Peace of Mind
EXTD=
EXTT0=
EXTT1=
EXTT2=
EXTT3=
EXTT4=
EXTT5=
EXTT6=
EXTT7=
EXTT8=
EXTT9=
EXTT10=
EXTT11=
PLAYORDER=
